<svg xmlns="http://www.w3.org/2000/svg" viewBox="0 0 275.41 48.69"><defs><style>.cls-1,.cls-2{fill:#fff;}.cls-1{stroke:#000;stroke-width:0.25px;}</style></defs><g id="Camada_2" data-name="Camada 2"><g id="Layer_1" data-name="Layer 1"><path class="cls-1" d="M.12.23v8.2H.55a15.69,15.69,0,0,1,15.7,15.69A16.16,16.16,0,0,1,16,26.73a45.15,45.15,0,0,0-12.67-7c-1-.37-2.14-.7-3.24-1v2.88L1.35,22c4.61,1.53,10,4.14,13.79,7.93A15.69,15.69,0,0,1,.55,39.81H.12v8.73h0L37.87,24.42Z"/><polygon class="cls-2" points="1.56 26.95 1.08 26.72 0.63 26.98 0.7 26.46 0.31 26.11 0.83 26.02 1.05 25.54 1.29 26 1.81 26.06 1.45 26.44 1.56 26.95"/><polygon class="cls-2" points="4.95 24.67 4.54 24.46 4.14 24.68 4.21 24.22 3.87 23.91 4.33 23.84 4.53 23.42 4.74 23.83 5.19 23.89 4.87 24.21 4.95 24.67"/><polygon class="cls-2" points="2.94 28.41 2.68 28.28 2.42 28.43 2.46 28.14 2.24 27.94 2.53 27.89 2.65 27.62 2.79 27.88 3.08 27.91 2.88 28.12 2.94 28.41"/><polygon class="cls-2" points="1.07 29.66 0.81 29.53 0.55 29.68 0.59 29.39 0.37 29.19 0.66 29.14 0.77 28.86 0.92 29.12 1.21 29.15 1.01 29.37 1.07 29.66"/><polygon class="cls-2" points="1.9 32.01 1.43 31.78 0.97 32.04 1.05 31.52 0.66 31.17 1.18 31.08 1.39 30.6 1.64 31.06 2.16 31.12 1.8 31.5 1.9 32.01"/><polygon class="cls-2" points="4.4 33.05 4.13 32.93 3.88 33.08 3.91 32.78 3.69 32.59 3.98 32.53 4.1 32.26 4.24 32.52 4.54 32.55 4.33 32.76 4.4 33.05"/><polygon class="cls-2" points="6.89 32.84 6.63 32.72 6.37 32.87 6.41 32.58 6.19 32.38 6.48 32.32 6.59 32.05 6.74 32.31 7.03 32.34 6.83 32.55 6.89 32.84"/><polygon class="cls-2" points="8.9 32.91 8.68 32.77 8.43 32.87 8.5 32.61 8.32 32.41 8.59 32.39 8.73 32.16 8.83 32.41 9.09 32.48 8.88 32.65 8.9 32.91"/><polygon class="cls-2" points="10.22 32.98 9.99 32.84 9.74 32.94 9.81 32.68 9.64 32.48 9.91 32.46 10.05 32.23 10.14 32.48 10.4 32.54 10.2 32.71 10.22 32.98"/><polygon class="cls-2" points="11.6 32.7 11.28 32.56 10.97 32.75 11.01 32.39 10.73 32.16 11.08 32.08 11.22 31.75 11.4 32.06 11.76 32.09 11.52 32.35 11.6 32.7"/><polygon class="cls-2" points="1.42 36.45 1.21 36.34 1.01 36.45 1.05 36.23 0.88 36.07 1.11 36.03 1.21 35.82 1.31 36.03 1.54 36.06 1.38 36.22 1.42 36.45"/><polygon class="cls-2" points="5.9 36.03 5.5 35.82 5.09 36.03 5.17 35.58 4.84 35.27 5.29 35.2 5.5 34.79 5.7 35.2 6.15 35.26 5.82 35.58 5.9 36.03"/><polygon class="cls-2" points="8.76 35.96 8.54 35.81 8.29 35.92 8.36 35.66 8.18 35.46 8.45 35.44 8.59 35.21 8.69 35.46 8.95 35.52 8.74 35.69 8.76 35.96"/><polygon class="cls-2" points="8.9 34.51 8.65 34.42 8.45 34.58 8.45 34.32 8.24 34.17 8.49 34.09 8.56 33.84 8.71 34.05 8.97 34.05 8.82 34.26 8.9 34.51"/><polygon class="cls-2" points="12.23 31.25 11.96 31.12 11.71 31.27 11.74 30.98 11.52 30.79 11.81 30.73 11.93 30.46 12.07 30.72 12.37 30.75 12.16 30.96 12.23 31.25"/><polygon class="cls-2" points="12.02 30.21 11.67 30.02 11.32 30.2 11.39 29.81 11.11 29.54 11.5 29.48 11.68 29.13 11.85 29.48 12.24 29.55 11.96 29.82 12.02 30.21"/><polygon class="cls-2" points="13.96 29.72 13.69 29.6 13.44 29.75 13.47 29.46 13.26 29.26 13.54 29.2 13.66 28.93 13.8 29.19 14.1 29.22 13.9 29.44 13.96 29.72"/><polygon class="cls-2" points="6.41 19.68 6 19.47 5.59 19.69 5.66 19.23 5.33 18.92 5.78 18.85 5.98 18.43 6.19 18.84 6.65 18.9 6.32 19.23 6.41 19.68"/><path class="cls-2" d="M71.25,34.3A7,7,0,0,1,69,36.88a10.77,10.77,0,0,1-3.57,1.54,18.79,18.79,0,0,1-4.61.52H46.5V8.84h14a11.38,11.38,0,0,1,7.27,2.1,6.9,6.9,0,0,1,2.64,5.68v.09A7.52,7.52,0,0,1,70.05,19a7.14,7.14,0,0,1-.85,1.78A7,7,0,0,1,68,22.17a8.65,8.65,0,0,1-1.52,1,10.19,10.19,0,0,1,4.11,2.69,6.86,6.86,0,0,1,1.5,4.71v.08A7.85,7.85,0,0,1,71.25,34.3ZM63.83,17.74a2.66,2.66,0,0,0-1.11-2.3,5.54,5.54,0,0,0-3.23-.8H53V21h6.11a6.8,6.8,0,0,0,3.48-.76,2.6,2.6,0,0,0,1.29-2.43Zm1.68,12a2.86,2.86,0,0,0-1.16-2.39,6.29,6.29,0,0,0-3.74-.88H53v6.62h7.87a6.35,6.35,0,0,0,3.44-.79,2.71,2.71,0,0,0,1.25-2.47Z"/><path class="cls-2" d="M95.83,38.94l-6.45-9.63H84.17v9.63H77.55V8.84H91.31c3.59,0,6.37.87,8.37,2.62a9.23,9.23,0,0,1,3,7.31v.09a9.43,9.43,0,0,1-1.79,5.95,10.34,10.34,0,0,1-4.67,3.38l7.36,10.75ZM96,19.11a3.83,3.83,0,0,0-1.38-3.22,6.06,6.06,0,0,0-3.83-1.08H84.17v8.65h6.71a5.54,5.54,0,0,0,3.77-1.16A4,4,0,0,0,96,19.2Z"/><path class="cls-2" d="M131.05,38.94l-2.75-6.75H115.57l-2.76,6.75h-6.75L119,8.62h6.11L138,38.94Zm-9.12-22.36-4,9.76h8Z"/><path class="cls-2" d="M163.73,38.94,149.15,19.8V38.94h-6.54V8.84h6.11l14.11,18.53V8.84h6.53v30.1Z"/><path class="cls-2" d="M176.59,38.94V8.84h22.66v5.89H183.12v6.11h14.19v5.89H183.12v6.32h16.34v5.89Z"/><path class="cls-2" d="M238.47,39.15h-5.76l-6.8-19.69-6.79,19.69h-5.77L203.08,8.84h7.09l6.24,20.38,6.75-20.47h5.68l6.75,20.47,6.23-20.38h6.93Z"/><path class="cls-2" d="M274.59,34a8.13,8.13,0,0,1-2.26,2.92,10.22,10.22,0,0,1-3.47,1.81,15.21,15.21,0,0,1-4.46.62,20.07,20.07,0,0,1-6.75-1.18,17.73,17.73,0,0,1-6-3.64l3.91-4.68a20,20,0,0,0,4.24,2.66,11.29,11.29,0,0,0,4.75,1,5.8,5.8,0,0,0,3.2-.75,2.37,2.37,0,0,0,1.14-2.09V30.6a2.58,2.58,0,0,0-.24-1.14,2.46,2.46,0,0,0-.9-.93,10.36,10.36,0,0,0-1.86-.86c-.79-.28-1.81-.58-3.08-.9a37.27,37.27,0,0,1-4.14-1.25,11.76,11.76,0,0,1-3.15-1.7,6.82,6.82,0,0,1-2-2.51,8.67,8.67,0,0,1-.71-3.74v-.09a8.6,8.6,0,0,1,.77-3.72,8.5,8.5,0,0,1,2.15-2.86A9.84,9.84,0,0,1,259,9.05a13.3,13.3,0,0,1,4.25-.64,18,18,0,0,1,6.09,1,17.81,17.81,0,0,1,5.09,2.83l-3.44,5a22.35,22.35,0,0,0-4-2.17,10.11,10.11,0,0,0-3.87-.79,4.7,4.7,0,0,0-2.9.75,2.29,2.29,0,0,0-1,1.87V17a2.77,2.77,0,0,0,.28,1.27,2.59,2.59,0,0,0,1,1,9.39,9.39,0,0,0,2,.82c.85.26,1.92.56,3.22.9a29.35,29.35,0,0,1,4.07,1.36,11.45,11.45,0,0,1,3,1.8,6.93,6.93,0,0,1,1.85,2.47,8.36,8.36,0,0,1,.63,3.4V30A9.22,9.22,0,0,1,274.59,34Z"/></g></g></svg>