<?xml version="1.0" encoding="utf-8"?>
<!-- Generator: Adobe Illustrator 25.2.1, SVG Export Plug-In . SVG Version: 6.00 Build 0)  -->
<svg version="1.1" id="bg" xmlns="http://www.w3.org/2000/svg" xmlns:xlink="http://www.w3.org/1999/xlink" x="0px" y="0px"
	 viewBox="0 0 1122 1122" style="enable-background:new 0 0 1122 1122;" xml:space="preserve">
<style type="text/css">
	.st0{fill:#143756;}
	.st1{fill:none;}
	.st2{fill:#EDEAE4;}
</style>
<rect x="1463.23" y="22.01" class="st0" width="1122" height="1122"/>
<polygon class="st1" points="-1004.55,686.99 -901.08,627.25 -901.08,589.73 -934.33,608.93 -934.33,608.93 -969.82,629.42 
	-969.82,629.42 -1004.55,649.48 "/>
<polygon class="st1" points="-615.64,547.88 -648.13,566.64 -544.65,626.39 -512.16,607.63 "/>
<polygon class="st1" points="-1041.55,547.88 -1074.04,566.64 -970.56,626.39 -938.07,607.63 "/>
<polygon class="st1" points="-791.6,686.99 -688.12,627.25 -688.12,589.73 -721.37,608.93 -721.38,608.93 -756.87,629.42 
	-756.87,629.42 -791.6,649.48 "/>
<polygon class="st1" points="-828.59,547.88 -861.08,566.64 -757.61,626.39 -725.11,607.63 "/>
<polygon class="st1" points="-722.11,732.31 -754.61,751.07 -651.13,810.81 -618.64,792.05 "/>
<polygon class="st1" points="-1035.88,756.07 -1112.53,711.82 -1145.02,730.58 -1041.55,790.32 -1009.05,771.56 "/>
<polygon class="st1" points="-719.11,730.58 -615.64,790.32 -583.15,771.56 -610.37,755.84 -686.62,711.82 "/>
<polygon class="st1" points="-649.63,1098.56 -617.14,1117.32 -617.14,997.83 -649.63,979.07 "/>
<polygon class="st1" points="-1114.03,833.9 -1146.52,815.14 -1146.52,934.62 -1140.86,937.9 -1114.03,953.38 "/>
<polygon class="st1" points="-578.65,1096.83 -475.17,1037.08 -475.17,999.56 -578.65,1059.31 "/>
<polygon class="st1" points="-615.64,916.73 -648.13,935.49 -544.65,995.23 -512.16,976.47 "/>
<polygon class="st1" points="-578.65,727.98 -475.17,668.24 -475.17,630.72 -578.65,690.46 "/>
<polygon class="st1" points="-685.12,912.4 -581.65,852.66 -581.65,815.14 -685.12,874.88 "/>
<polygon class="st1" points="-1004.55,1137.81 -901.08,1078.07 -901.08,1040.55 -1004.55,1100.29 "/>
<polygon class="st1" points="-791.6,1137.81 -688.12,1078.07 -688.12,1040.55 -791.6,1100.29 "/>
<polygon class="st1" points="-685.12,1078.07 -652.63,1096.82 -652.63,977.34 -685.12,958.58 "/>
<polygon class="st1" points="-1043.05,748.47 -1043.05,628.98 -1075.54,610.22 -1075.54,729.71 "/>
<polygon class="st1" points="-936.57,932.89 -936.57,813.41 -969.06,794.65 -969.06,914.13 "/>
<polygon class="st1" points="-867.08,812.54 -970.56,752.8 -976.23,756.07 -1003.05,771.56 -899.58,831.3 "/>
<polygon class="st1" points="-967.56,751.07 -864.08,810.81 -831.59,792.05 -935.07,732.31 "/>
<polygon class="st1" points="-720.61,934.62 -714.54,938.13 -688.12,953.38 -688.12,833.9 -720.61,815.14 "/>
<polygon class="st1" points="-794.6,856.12 -898.08,915.87 -898.08,953.38 -794.6,893.64 "/>
<polygon class="st1" points="-756.11,914.13 -723.61,932.89 -723.61,813.41 -756.11,794.65 "/>
<polygon class="st1" points="-791.6,768.96 -688.12,709.22 -688.12,671.7 -791.6,731.44 "/>
<polygon class="st1" points="-791.6,893.64 -759.11,912.4 -759.11,792.92 -791.6,774.16 "/>
<polygon class="st1" points="-934.33,977.78 -969.82,998.27 -969.82,998.27 -1004.55,1018.32 -1004.55,1055.84 -901.08,996.1 
	-901.08,958.58 -934.33,977.78 "/>
<polygon class="st1" points="-793.1,896.24 -825.59,915 -722.11,974.74 -689.62,955.98 "/>
<polygon class="st1" points="-760.61,996.97 -864.08,937.22 -896.58,955.98 -793.1,1015.72 "/>
<polygon class="st1" points="-901.08,999.56 -1004.55,1059.31 -1004.55,1096.83 -901.08,1037.08 "/>
<polygon class="st1" points="-828.59,916.73 -861.08,935.49 -757.61,995.23 -725.11,976.47 "/>
<polygon class="st1" points="-901.08,671.7 -1004.55,731.44 -1004.55,768.96 -901.08,709.22 "/>
<polygon class="st1" points="-898.08,912.4 -794.6,852.66 -794.6,815.14 -898.08,874.88 "/>
<polygon class="st1" points="-901.08,833.9 -933.57,815.14 -933.57,934.62 -927.9,937.9 -901.08,953.38 "/>
<polygon class="st1" points="-863.35,813.85 -898.08,833.9 -898.08,871.42 -794.6,811.68 -794.6,774.16 -827.85,793.36 
	-827.85,793.36 -863.34,813.85 "/>
<polygon class="st1" points="-581.65,1137.81 -581.65,1018.32 -614.14,999.56 -614.14,1119.05 "/>
<polygon class="st1" points="-1080.04,443.69 -1183.51,383.95 -1189.18,387.22 -1216.01,402.71 -1112.53,462.45 "/>
<polygon class="st1" points="-863.35,445 -898.08,465.05 -898.08,502.57 -794.6,442.83 -794.6,405.31 -827.85,424.51 
	-827.85,424.51 -863.34,445 "/>
<polygon class="st1" points="-472.17,1322.23 -368.69,1262.49 -368.69,1224.97 -472.17,1284.71 "/>
<polygon class="st1" points="-650.39,445 -685.12,465.05 -685.12,502.57 -581.65,442.83 -581.65,405.31 -614.9,424.51 
	-614.9,424.51 -650.39,445 "/>
<polygon class="st1" points="-437.44,445 -472.17,465.05 -472.17,502.57 -368.69,442.83 -368.69,405.31 -401.94,424.51 
	-401.94,424.51 -437.44,445 "/>
<polygon class="st1" points="-441.18,443.69 -544.65,383.95 -549.92,386.99 -577.15,402.71 -473.67,462.45 "/>
<polygon class="st1" points="-472.17,543.55 -368.69,483.81 -368.69,446.29 -472.17,506.04 "/>
<polygon class="st1" points="-654.13,443.69 -757.61,383.95 -763.68,387.46 -790.1,402.71 -686.62,462.45 "/>
<polygon class="st1" points="-867.08,443.69 -970.56,383.95 -976.23,387.22 -1003.05,402.71 -899.58,462.45 "/>
<polygon class="st1" points="-1323.98,502.57 -1220.51,442.83 -1220.51,405.31 -1253.76,424.51 -1253.76,424.51 -1289.25,445 
	-1289.25,445 -1323.98,465.05 "/>
<polygon class="st1" points="-1326.98,833.9 -1359.48,815.14 -1359.48,934.62 -1353.81,937.9 -1326.98,953.38 "/>
<polygon class="st1" points="-1323.98,1240.27 -1220.51,1180.52 -1220.51,1143 -1253.76,1162.2 -1253.76,1162.2 -1289.25,1182.69 
	-1289.25,1182.7 -1323.98,1202.75 "/>
<polygon class="st1" points="-1076.3,445 -1111.03,465.05 -1111.03,502.57 -1007.55,442.83 -1007.55,405.31 -1040.81,424.51 
	-1040.81,424.51 -1076.3,445 "/>
<polygon class="st1" points="-791.6,727.98 -688.12,668.24 -688.12,630.72 -791.6,690.46 "/>
<polygon class="st1" points="-509.16,732.31 -541.65,751.07 -438.18,810.81 -405.68,792.05 "/>
<polygon class="st1" points="-1326.98,465.05 -1359.48,446.29 -1359.48,565.78 -1353.81,569.05 -1326.98,584.54 "/>
<polygon class="st1" points="-1323.98,871.42 -1220.51,811.68 -1220.51,774.16 -1253.76,793.36 -1253.76,793.36 -1289.25,813.85 
	-1289.25,813.85 -1323.98,833.9 "/>
<polygon class="st1" points="-472.17,1281.25 -368.69,1221.51 -368.69,1183.99 -472.17,1243.73 "/>
<polygon class="st1" points="-472.17,912.4 -368.69,852.66 -368.69,815.14 -472.17,874.88 "/>
<polygon class="st1" points="-686.62,1080.66 -719.11,1099.42 -615.64,1159.17 -583.15,1140.41 "/>
<polygon class="st1" points="-722.11,1101.16 -754.61,1119.91 -651.13,1179.66 -618.64,1160.9 "/>
<polygon class="st1" points="-1112.53,1080.66 -1145.02,1099.42 -1041.55,1159.17 -1009.05,1140.41 "/>
<polygon class="st1" points="-899.58,1080.66 -932.07,1099.42 -828.59,1159.17 -796.1,1140.41 "/>
<polygon class="st1" points="-1148.02,1101.16 -1180.51,1119.91 -1077.04,1179.66 -1044.54,1160.9 "/>
<polygon class="st1" points="-1114.03,630.72 -1217.51,690.46 -1217.51,727.98 -1114.03,668.24 "/>
<polygon class="st1" points="-1219.01,896.24 -1251.5,915 -1148.02,974.74 -1115.53,955.98 "/>
<polygon class="st1" points="-935.07,1101.16 -967.56,1119.91 -864.08,1179.66 -831.59,1160.9 "/>
<polygon class="st1" points="-1219.01,527.39 -1251.5,546.15 -1148.02,605.89 -1115.53,587.14 "/>
<polygon class="st1" points="-509.16,1101.16 -541.65,1119.91 -438.18,1179.66 -405.68,1160.9 "/>
<polygon class="st1" points="-544.65,1121.65 -577.15,1140.41 -473.67,1200.15 -441.18,1181.39 "/>
<polygon class="st1" points="-473.67,1080.66 -506.16,1099.42 -402.68,1159.17 -370.19,1140.41 "/>
<polygon class="st1" points="-1080.04,1181.39 -1183.51,1121.65 -1216.01,1140.41 -1112.53,1200.15 "/>
<polygon class="st1" points="-1220.51,1137.81 -1220.51,1018.32 -1253,999.56 -1253,1119.05 "/>
<polygon class="st1" points="-867.08,1181.39 -970.56,1121.65 -1003.05,1140.41 -899.58,1200.15 "/>
<polygon class="st1" points="-654.13,1181.39 -757.61,1121.65 -790.1,1140.41 -686.62,1200.15 "/>
<polygon class="st1" points="-1006.05,896.24 -1038.55,915 -935.07,974.74 -902.58,955.98 "/>
<polygon class="st1" points="-472.17,1078.07 -439.68,1096.82 -439.68,977.34 -472.17,958.58 "/>
<polygon class="st1" points="-368.69,856.12 -472.17,915.87 -472.17,953.38 -368.69,893.64 "/>
<polygon class="st1" points="-506.16,730.58 -402.68,790.32 -370.19,771.56 -396.61,756.31 -473.67,711.82 "/>
<polygon class="st1" points="-898.08,543.55 -794.6,483.81 -794.6,446.29 -898.08,506.04 "/>
<polygon class="st1" points="-436.68,610.22 -436.68,729.71 -404.18,748.47 -404.18,628.98 "/>
<polygon class="st1" points="-436.68,979.07 -436.68,1098.56 -404.18,1117.32 -404.18,997.83 "/>
<polygon class="st1" points="-543.15,1163.5 -543.15,1282.98 -510.66,1301.74 -510.66,1182.25 "/>
<polygon class="st1" points="-401.94,1162.2 -437.44,1182.69 -437.44,1182.7 -472.17,1202.75 -472.17,1240.27 -368.69,1180.52 
	-368.69,1143 -401.94,1162.2 "/>
<polygon class="st1" points="-581.65,1224.97 -685.12,1284.71 -685.12,1322.23 -581.65,1262.49 "/>
<polygon class="st1" points="-475.17,1202.75 -507.66,1183.99 -507.66,1303.47 -475.17,1322.23 "/>
<polygon class="st1" points="-1222.01,402.71 -1249.24,386.99 -1325.48,342.97 -1357.98,361.73 -1254.5,421.47 "/>
<polygon class="st1" points="-1180.51,382.22 -1077.04,441.96 -1044.55,423.2 -1148.02,363.46 "/>
<polygon class="st1" points="-688.12,1202.75 -720.61,1183.99 -720.61,1303.47 -688.12,1322.23 "/>
<polygon class="st1" points="-1253,381.35 -1247.74,384.39 -1220.51,400.11 -1220.51,280.63 -1253,261.87 "/>
<polygon class="st1" points="-1222.01,771.56 -1249.24,755.84 -1325.48,711.82 -1357.98,730.58 -1254.5,790.32 "/>
<polygon class="st1" points="-1291.49,608.49 -1323.98,589.73 -1323.98,709.22 -1291.49,727.98 "/>
<polygon class="st1" points="-472.17,709.22 -439.68,727.98 -439.68,608.49 -472.17,589.73 "/>
<polygon class="st1" points="-541.65,382.22 -438.18,441.96 -405.68,423.2 -509.16,363.46 "/>
<polygon class="st1" points="-368.69,487.28 -472.17,547.02 -472.17,584.54 -368.69,524.79 "/>
<polygon class="st1" points="-754.61,382.22 -651.13,441.96 -618.64,423.2 -722.11,363.46 "/>
<polygon class="st1" points="-967.56,382.22 -864.08,441.96 -831.59,423.2 -935.07,363.46 "/>
<polygon class="st1" points="-794.6,1224.97 -898.08,1284.71 -898.08,1322.23 -794.6,1262.49 "/>
<polygon class="st1" points="-1256,748.47 -1256,628.98 -1288.49,610.22 -1288.49,729.71 "/>
<polygon class="st1" points="-1186.51,628.12 -1289.99,568.38 -1322.48,587.14 -1219.01,646.88 "/>
<polygon class="st1" points="-756.11,1163.5 -756.11,1282.98 -723.61,1301.74 -723.61,1182.25 "/>
<polygon class="st1" points="-1323.98,912.4 -1220.51,852.66 -1220.51,815.14 -1323.98,874.88 "/>
<polygon class="st1" points="-1220.51,856.12 -1323.98,915.87 -1323.98,953.38 -1220.51,893.64 "/>
<polygon class="st1" points="-1220.51,487.28 -1323.98,547.02 -1323.98,584.54 -1220.51,524.79 "/>
<polygon class="st1" points="-932.07,730.58 -828.59,790.32 -796.1,771.56 -823.33,755.84 -899.58,711.82 "/>
<polygon class="st1" points="-1114.03,299.39 -1114.03,261.87 -1217.51,321.61 -1217.51,359.13 "/>
<polygon class="st1" points="-1323.98,543.55 -1220.51,483.81 -1220.51,446.29 -1323.98,506.04 "/>
<polygon class="st1" points="-1111.03,543.55 -1007.55,483.81 -1007.55,446.29 -1111.03,506.04 "/>
<polygon class="st1" points="-1220.51,649.48 -1253,630.72 -1253,750.2 -1247.74,753.24 -1220.51,768.96 "/>
<polygon class="st1" points="-1186.51,996.97 -1289.99,937.22 -1322.48,955.98 -1219.01,1015.72 "/>
<polygon class="st1" points="-1114.03,1202.75 -1146.52,1183.99 -1146.52,1303.47 -1114.03,1322.23 "/>
<polygon class="st1" points="-969.06,1163.5 -969.06,1282.98 -936.57,1301.74 -936.57,1182.25 "/>
<polygon class="st1" points="-1291.49,1096.82 -1291.49,977.34 -1323.98,958.58 -1323.98,1078.07 "/>
<polygon class="st1" points="-901.08,1202.75 -933.57,1183.99 -933.57,1303.47 -901.08,1322.23 "/>
<polygon class="st1" points="-1007.55,1224.97 -1111.03,1284.71 -1111.03,1322.23 -1007.55,1262.49 "/>
<polygon class="st1" points="-1182.01,1163.5 -1182.01,1282.98 -1149.52,1301.74 -1149.52,1182.25 "/>
<polygon class="st1" points="-1256,1117.32 -1256,997.83 -1288.49,979.07 -1288.49,1098.56 "/>
<polygon class="st1" points="-1323.98,1281.25 -1220.51,1221.51 -1220.51,1183.99 -1323.98,1243.73 "/>
<polygon class="st1" points="-1220.51,1224.97 -1323.98,1284.71 -1323.98,1322.23 -1220.51,1262.49 "/>
<polygon class="st1" points="-401.94,793.36 -437.44,813.85 -437.44,813.85 -472.17,833.9 -472.17,871.42 -368.69,811.68 
	-368.69,774.16 -401.94,793.36 "/>
<polygon class="st1" points="-1038.55,1283.85 -935.07,1343.59 -902.58,1324.83 -1006.05,1265.09 "/>
<polygon class="st1" points="-825.59,1283.85 -722.11,1343.59 -689.62,1324.83 -793.1,1265.09 "/>
<polygon class="st1" points="-1251.5,1283.85 -1148.02,1343.59 -1115.53,1324.83 -1219.01,1265.09 "/>
<polygon class="st1" points="-365.69,1262.49 -333.2,1281.25 -333.2,1161.76 -365.69,1143 "/>
<polygon class="st1" points="-612.64,1283.85 -509.16,1343.59 -476.67,1324.83 -580.15,1265.09 "/>
<polygon class="st1" points="-330.2,1282.98 -297.71,1301.74 -297.71,1182.25 -330.2,1163.5 "/>
<polygon class="st1" points="-1362.48,813.41 -1394.97,794.65 -1394.97,914.13 -1362.48,932.89 "/>
<polygon class="st1" points="-1360.98,732.31 -1393.47,751.07 -1289.99,810.81 -1257.5,792.05 "/>
<polygon class="st1" points="-1362.48,444.56 -1394.97,425.8 -1394.97,545.29 -1362.48,564.05 "/>
<polygon class="st1" points="-1362.48,1182.25 -1394.97,1163.5 -1394.97,1282.98 -1362.48,1301.74 "/>
<polygon class="st1" points="-1360.98,1101.16 -1393.47,1119.91 -1289.99,1179.66 -1257.5,1160.9 "/>
<polygon class="st1" points="-617.14,260.14 -649.63,241.38 -649.63,360.86 -617.14,379.62 "/>
<polygon class="st1" points="-1222.01,1140.41 -1325.48,1080.66 -1357.98,1099.42 -1254.5,1159.17 "/>
<polygon class="st1" points="-688.12,299.39 -688.12,261.87 -791.6,321.61 -791.6,359.13 "/>
<polygon class="st1" points="-901.08,299.39 -901.08,261.87 -1004.55,321.61 -1004.55,359.13 "/>
<polygon class="st1" points="-331.7,995.23 -299.21,976.47 -402.68,916.73 -435.18,935.49 "/>
<polygon class="st1" points="-830.09,260.14 -862.58,241.38 -862.58,360.86 -830.09,379.62 "/>
<polygon class="st1" points="-330.2,914.13 -297.71,932.89 -297.71,813.41 -330.2,794.65 "/>
<polygon class="st1" points="-331.7,626.39 -299.21,607.63 -402.68,547.88 -435.18,566.64 "/>
<polygon class="st1" points="-404.18,260.14 -436.68,241.38 -436.68,360.86 -404.18,379.62 "/>
<polygon class="st1" points="-330.2,545.29 -297.71,564.05 -297.71,444.56 -330.2,425.8 "/>
<polygon class="st1" points="-475.17,299.39 -475.17,261.87 -578.65,321.61 -578.65,359.13 "/>
<polygon class="st1" points="-365.69,405.31 -365.69,524.79 -333.2,543.55 -333.2,424.07 "/>
<polygon class="st1" points="-438.18,568.38 -470.67,587.14 -367.19,646.88 -334.7,628.12 "/>
<polygon class="st1" points="-578.65,400.11 -475.17,340.37 -475.17,302.85 -578.65,362.59 "/>
<polygon class="st1" points="-401.18,750.2 -395.11,753.71 -368.69,768.96 -368.69,649.48 -401.18,630.72 "/>
<polygon class="st1" points="-401.18,381.35 -395.11,384.86 -368.69,400.11 -368.69,280.63 -401.18,261.87 "/>
<polygon class="st1" points="-506.16,361.73 -402.68,421.47 -370.19,402.71 -396.61,387.46 -473.67,342.97 "/>
<polygon class="st1" points="-401.18,1119.05 -368.69,1137.81 -368.69,1018.32 -401.18,999.56 "/>
<polygon class="st1" points="-1359.48,1183.99 -1359.48,1303.47 -1326.98,1322.23 -1326.98,1202.75 "/>
<polygon class="st1" points="-438.18,937.22 -470.67,955.98 -367.19,1015.72 -334.7,996.97 "/>
<polygon class="st1" points="-365.69,774.16 -365.69,893.64 -333.2,912.4 -333.2,792.92 "/>
<polygon class="st1" points="-1256,260.14 -1288.49,241.38 -1288.49,360.86 -1256,379.62 "/>
<polygon class="st1" points="-1040.05,381.35 -1034.38,384.63 -1007.55,400.11 -1007.55,280.63 -1040.05,261.87 "/>
<polygon class="st1" points="-1145.02,361.73 -1041.55,421.47 -1009.05,402.71 -1035.88,387.22 -1112.53,342.97 "/>
<polygon class="st1" points="-1360.98,363.46 -1393.47,382.22 -1289.99,441.96 -1257.5,423.2 "/>
<polygon class="st1" points="-1217.51,400.11 -1114.03,340.37 -1114.03,302.85 -1217.51,362.59 "/>
<polygon class="st1" points="-1004.55,400.11 -901.08,340.37 -901.08,302.85 -1004.55,362.59 "/>
<polygon class="st1" points="-791.6,400.11 -688.12,340.37 -688.12,302.85 -791.6,362.59 "/>
<polygon class="st1" points="-614.14,381.35 -608.87,384.39 -581.65,400.11 -581.65,280.63 -614.14,261.87 "/>
<polygon class="st1" points="-932.07,361.73 -828.59,421.47 -796.1,402.71 -823.33,386.99 -899.58,342.97 "/>
<polygon class="st1" points="-719.11,361.73 -615.64,421.47 -583.15,402.71 -610.37,386.99 -686.62,342.97 "/>
<polygon class="st1" points="-827.09,381.35 -821.83,384.39 -794.6,400.11 -794.6,280.63 -827.09,261.87 "/>
<polygon class="st1" points="-972.06,912.4 -972.06,792.92 -1004.55,774.16 -1004.55,893.64 "/>
<polygon class="st1" points="-1038.55,546.15 -935.07,605.89 -902.58,587.14 -1006.05,527.39 "/>
<polygon class="st1" points="-760.61,628.12 -864.08,568.38 -896.58,587.14 -793.1,646.88 "/>
<polygon class="st1" points="-973.56,628.12 -1077.04,568.38 -1109.53,587.14 -1006.05,646.88 "/>
<polygon class="st1" points="-1217.51,686.99 -1114.03,627.25 -1114.03,589.73 -1147.28,608.93 -1147.28,608.93 -1182.78,629.42 
	-1182.78,629.42 -1217.51,649.48 "/>
<polygon class="st1" points="-825.59,546.15 -722.11,605.89 -689.62,587.14 -793.1,527.39 "/>
<polygon class="st1" points="-649.63,729.71 -617.14,748.47 -617.14,628.98 -649.63,610.22 "/>
<polygon class="st1" points="-685.12,709.22 -652.63,727.98 -652.63,608.49 -685.12,589.73 "/>
<polygon class="st1" points="-1111.03,584.54 -1007.55,524.79 -1007.55,487.28 -1111.03,547.02 "/>
<polygon class="st1" points="-1146.52,565.78 -1140.86,569.05 -1114.03,584.54 -1114.03,465.05 -1146.52,446.29 "/>
<polygon class="st1" points="-1151.02,607.63 -1254.5,547.88 -1286.99,566.64 -1183.51,626.39 "/>
<polygon class="st1" points="-1004.55,524.79 -972.06,543.55 -972.06,424.07 -1004.55,405.31 "/>
<polygon class="st1" points="-1078.54,608.49 -1111.03,589.73 -1111.03,709.22 -1078.54,727.98 "/>
<polygon class="st1" points="-1182.01,545.29 -1149.52,564.05 -1149.52,444.56 -1182.01,425.8 "/>
<polygon class="st1" points="-1007.55,1143 -1040.81,1162.2 -1040.81,1162.2 -1076.3,1182.69 -1076.3,1182.7 -1111.03,1202.75 
	-1111.03,1240.27 -1007.55,1180.52 "/>
<polygon class="st1" points="-614.14,750.2 -608.87,753.24 -581.65,768.96 -581.65,649.48 -614.14,630.72 "/>
<polygon class="st1" points="-794.6,1018.32 -827.09,999.56 -827.09,1119.05 -794.6,1137.81 "/>
<polygon class="st1" points="-972.06,1161.76 -1004.55,1143 -1004.55,1262.49 -972.06,1281.25 "/>
<polygon class="st1" points="-969.06,545.29 -936.57,564.05 -936.57,444.56 -969.06,425.8 "/>
<polygon class="st1" points="-830.09,997.83 -862.58,979.07 -862.58,1098.56 -830.09,1117.32 "/>
<polygon class="st1" points="-1007.55,1183.99 -1111.03,1243.73 -1111.03,1281.25 -1007.55,1221.51 "/>
<polygon class="st1" points="-614.9,793.36 -650.39,813.85 -650.39,813.85 -685.12,833.9 -685.12,871.42 -581.65,811.68 
	-581.65,774.16 -614.9,793.36 "/>
<polygon class="st1" points="-1114.03,671.7 -1217.51,731.44 -1217.51,768.96 -1114.03,709.22 "/>
<polygon class="st1" points="-1185.01,912.4 -1185.01,792.92 -1217.51,774.16 -1217.51,893.64 "/>
<polygon class="st1" points="-1217.51,1055.84 -1114.03,996.1 -1114.03,958.58 -1147.28,977.78 -1147.28,977.78 -1182.78,998.27 
	-1182.78,998.27 -1217.51,1018.32 "/>
<polygon class="st1" points="-1151.02,976.47 -1254.5,916.73 -1286.99,935.49 -1183.51,995.23 "/>
<polygon class="st1" points="-1185.01,1161.76 -1217.51,1143 -1217.51,1262.49 -1185.01,1281.25 "/>
<polygon class="st1" points="-685.12,953.38 -581.65,893.64 -581.65,856.12 -685.12,915.87 "/>
<polygon class="st1" points="-933.57,565.78 -927.9,569.05 -901.08,584.54 -901.08,465.05 -933.57,446.29 "/>
<polygon class="st1" points="-1149.52,932.89 -1149.52,813.41 -1182.01,794.65 -1182.01,914.13 "/>
<polygon class="st1" points="-1114.03,1040.55 -1217.51,1100.29 -1217.51,1137.81 -1114.03,1078.07 "/>
<polygon class="st1" points="-578.65,1100.29 -578.65,1137.81 -475.17,1078.07 -475.17,1040.55 "/>
<polygon class="st1" points="-1080.04,812.54 -1183.51,752.8 -1189.18,756.07 -1216.01,771.56 -1112.53,831.3 "/>
<polygon class="st1" points="-508.42,977.78 -543.91,998.27 -543.91,998.27 -578.65,1018.32 -578.65,1055.84 -475.17,996.1 
	-475.17,958.58 -508.42,977.78 "/>
<polygon class="st1" points="-1078.54,1096.82 -1078.54,977.34 -1111.03,958.58 -1111.03,1078.07 "/>
<polygon class="st1" points="-1044.55,792.05 -1148.02,732.31 -1180.51,751.07 -1077.04,810.81 "/>
<polygon class="st1" points="-1111.03,871.42 -1007.55,811.68 -1007.55,774.16 -1040.81,793.36 -1040.81,793.36 -1076.3,813.85 
	-1076.3,813.85 -1111.03,833.9 "/>
<polygon class="st1" points="-651.13,568.38 -683.62,587.14 -580.15,646.88 -547.65,628.12 "/>
<polygon class="st1" points="-612.64,915 -509.16,974.74 -476.67,955.98 -580.15,896.24 "/>
<polygon class="st1" points="-651.13,937.22 -683.62,955.98 -580.15,1015.72 -547.65,996.97 "/>
<polygon class="st1" points="-1217.51,1096.83 -1114.03,1037.08 -1114.03,999.56 -1217.51,1059.31 "/>
<polygon class="st1" points="-578.65,524.79 -546.15,543.55 -546.15,424.07 -578.65,405.31 "/>
<polygon class="st1" points="-543.15,794.65 -543.15,914.13 -510.66,932.89 -510.66,813.41 "/>
<polygon class="st1" points="-756.11,545.29 -723.61,564.05 -723.61,444.56 -756.11,425.8 "/>
<polygon class="st1" points="-720.61,565.78 -714.54,569.28 -688.12,584.54 -688.12,465.05 -720.61,446.29 "/>
<polygon class="st1" points="-791.6,524.79 -759.11,543.55 -759.11,424.07 -791.6,405.31 "/>
<polygon class="st1" points="-898.08,584.54 -794.6,524.79 -794.6,487.28 -898.08,547.02 "/>
<polygon class="st1" points="-685.12,584.54 -581.65,524.79 -581.65,487.28 -685.12,547.02 "/>
<polygon class="st1" points="-578.65,893.64 -546.15,912.4 -546.15,792.92 -578.65,774.16 "/>
<polygon class="st1" points="-578.65,731.44 -578.65,768.96 -475.17,709.22 -475.17,671.7 "/>
<polygon class="st1" points="-508.42,608.93 -543.91,629.42 -543.91,629.42 -578.65,649.48 -578.65,686.99 -475.17,627.25 
	-475.17,589.73 -508.42,608.93 "/>
<polygon class="st1" points="-612.64,546.15 -509.16,605.89 -476.67,587.14 -580.15,527.39 "/>
<polygon class="st1" points="-543.15,425.8 -543.15,545.29 -510.66,564.05 -510.66,444.56 "/>
<polygon class="st1" points="-1217.51,524.79 -1185.01,543.55 -1185.01,424.07 -1217.51,405.31 "/>
<polygon class="st1" points="-1007.55,856.12 -1111.03,915.87 -1111.03,953.38 -1007.55,893.64 "/>
<polygon class="st1" points="-1111.03,912.4 -1007.55,852.66 -1007.55,815.14 -1111.03,874.88 "/>
<polygon class="st1" points="-1040.05,750.2 -1034.38,753.47 -1007.55,768.96 -1007.55,649.48 -1040.05,630.72 "/>
<polygon class="st1" points="-973.56,996.97 -1077.04,937.22 -1109.53,955.98 -1006.05,1015.72 "/>
<polygon class="st1" points="-898.08,709.22 -865.58,727.98 -865.58,608.49 -898.08,589.73 "/>
<polygon class="st1" points="-544.65,752.8 -549.92,755.84 -577.15,771.56 -473.67,831.3 -441.18,812.54 "/>
<polygon class="st1" points="-827.09,750.2 -821.83,753.24 -794.6,768.96 -794.6,649.48 -827.09,630.72 "/>
<polygon class="st1" points="-862.58,729.71 -830.09,748.47 -830.09,628.98 -862.58,610.22 "/>
<polygon class="st1" points="-581.65,1183.99 -685.12,1243.73 -685.12,1281.25 -581.65,1221.51 "/>
<polygon class="st1" points="-759.11,1161.76 -791.6,1143 -791.6,1262.49 -759.11,1281.25 "/>
<polygon class="st1" points="-1043.05,1117.32 -1043.05,997.83 -1075.54,979.07 -1075.54,1098.56 "/>
<polygon class="st1" points="-1007.55,1018.32 -1040.05,999.56 -1040.05,1119.05 -1007.55,1137.81 "/>
<polygon class="st1" points="-794.6,1183.99 -898.08,1243.73 -898.08,1281.25 -794.6,1221.51 "/>
<polygon class="st1" points="-865.58,977.34 -898.08,958.58 -898.08,1078.07 -865.58,1096.82 "/>
<polygon class="st1" points="-475.17,833.9 -507.66,815.14 -507.66,934.62 -502.4,937.66 -475.17,953.38 "/>
<polygon class="st1" points="-581.65,1143 -614.9,1162.2 -614.9,1162.2 -650.39,1182.69 -650.39,1182.7 -685.12,1202.75 
	-685.12,1240.27 -581.65,1180.52 "/>
<polygon class="st1" points="-546.15,1161.76 -578.65,1143 -578.65,1262.49 -546.15,1281.25 "/>
<polygon class="st1" points="-475.17,465.05 -507.66,446.29 -507.66,565.78 -502.4,568.82 -475.17,584.54 "/>
<polygon class="st1" points="-688.12,999.56 -791.6,1059.31 -791.6,1096.83 -688.12,1037.08 "/>
<polygon class="st1" points="-1004.55,727.98 -901.08,668.24 -901.08,630.72 -1004.55,690.46 "/>
<polygon class="st1" points="-794.6,1143 -827.85,1162.2 -827.85,1162.2 -863.34,1182.69 -863.35,1182.7 -898.08,1202.75 
	-898.08,1240.27 -794.6,1180.52 "/>
<polygon class="st1" points="-1043.05,260.14 -1075.54,241.38 -1075.54,360.86 -1043.05,379.62 "/>
<polygon class="st1" points="-938.07,976.47 -1041.55,916.73 -1074.04,935.49 -970.56,995.23 "/>
<polygon class="st1" points="-721.38,977.78 -756.87,998.27 -756.87,998.27 -791.6,1018.32 -791.6,1055.84 -688.12,996.1 
	-688.12,958.58 -721.37,977.78 "/>
<polygon class="st1" points="-757.61,752.8 -763.68,756.31 -790.1,771.56 -686.62,831.3 -654.13,812.54 "/>
<polygon class="st1" points="-685.12,543.55 -581.65,483.81 -581.65,446.29 -685.12,506.04 "/>
<g>
	<polygon class="st2" points="48.25,0.31 48.25,0.31 48.79,0 42.79,0 12.02,17.77 0,10.82 0,14.29 9.02,19.5 0,24.71 0,28.17 
		12.76,20.8 12.76,20.8 	"/>
	<path class="st2" d="M190.98,40.86l34.73-20.05c0,0,0,0,0,0l35.49-20.49c0,0,0,0,0,0L261.75,0h-6l-30.77,17.77L194.21,0h-6
		l33.77,19.5l-32.49,18.76L123.22,0H117v119.36L84.51,100.6V0h-3v18.63L0,65.69v3.46L81.51,22.1v37.52L0,106.67v3.46l81.51-47.06
		v37.52L0,147.66v3.46l6.36-3.67l5.67-3.27l103.48,59.74l-32.49,18.76L0,174.76v3.46l10.52,6.07v119.48L0,297.71v3.46l80.01,46.19
		l-32.49,18.76L0,338.69v3.46l44.51,25.7l-32.49,18.76L0,379.67v3.46l9.02,5.21L0,393.55v3.46l12.76-7.37c0,0,0,0,0,0l35.49-20.49
		c0,0,0,0,0,0l33.25-19.2v37.52L0,434.54V438l81.51-47.06v37.52L0,475.52v3.46l81.51-47.06v37.52L0,516.5v3.46l6.36-3.67l5.67-3.27
		l103.48,59.74l-32.49,18.76L0,543.6v3.46l10.52,6.07v119.48L0,666.55v3.46l80.01,46.19l-32.49,18.76L0,707.54V711l44.51,25.7
		l-32.49,18.76L0,748.52v3.46l9.02,5.21L0,762.4v3.46l12.76-7.37c0,0,0,0,0,0l35.49-20.49c0,0,0,0,0,0l33.25-19.2v37.52L0,803.38
		v3.46l81.51-47.06v37.52L0,844.37v3.46l81.51-47.06v37.52L0,885.35v3.46l12.02-6.94l103.48,59.74l-32.49,18.76L0,912.45v3.46
		l10.52,6.07v119.48L0,1035.4v3.46l80.01,46.19l-32.49,18.76L0,1076.38v3.46l44.51,25.7L16.02,1122h6l26.23-15.15c0,0,0,0,0.01,0
		l33.25-19.2V1122h3v-34.35l32.49,18.76V1122h3v-13.85l24,13.85h6l-63.99-36.94l32.49-18.76l96.48,55.7h6l-99.48-57.44l32.49-18.76
		l103.48,59.74l-28.5,16.45h6l26.23-15.15c0,0,0,0,0.01,0l33.25-19.2V1122h3v-34.35l32.49,18.76V1122h3v-13.85l24,13.85h6
		l-63.99-36.94l32.49-18.76l96.48,55.7h6l-99.48-57.44l32.49-18.76l103.48,59.74l-28.5,16.45h6l26.23-15.15c0,0,0,0,0.01,0
		l33.25-19.2V1122h3v-34.35l32.49,18.76V1122h3v-13.85l24,13.85h6l-63.99-36.94l32.49-18.76l96.48,55.7h6l-99.48-57.44l32.49-18.76
		l103.48,59.74l-28.5,16.45h6l26.23-15.15c0,0,0,0,0.01,0l33.25-19.2V1122h3v-34.35l32.49,18.76V1122h3v-13.85l24,13.85h6
		l-63.99-36.94l32.49-18.76l96.48,55.7h6l-99.48-57.44l32.49-18.76l103.48,59.74l-28.5,16.45h6l26.23-15.15c0,0,0,0,0.01,0
		l33.25-19.2V1122h3v-34.35l32.49,18.76V1122h3v-13.85l24,13.85h6l-63.99-36.94l32.49-18.76l96.48,55.7h6l-99.48-57.44l32.49-18.76
		l103.48,59.74l-28.5,16.45h6l26.23-15.15c0,0,0,0,0.01,0l8.97-5.18v-3.46l-9.72,5.61l-103.48-59.74l32.49-18.76l80.7,46.59v-3.46
		l-8.22-4.74V944.21l8.22,4.74v-3.46l-77.7-44.86l32.49-18.76l45.21,26.1v-3.46l-42.21-24.37l32.49-18.76l9.72,5.61v-3.46
		l-6.72-3.88l6.72-3.88v-3.46l-79.2,45.73v-37.52l79.2-45.73v-3.46l-79.2,45.73v-37.52l79.2-45.73v-3.46l-79.2,45.73v-37.52
		l34.73-20.05c0,0,0,0,0,0l35.49-20.49c0,0,0,0,0,0l8.98-5.18v-3.46l-9.72,5.61l-103.48-59.74l32.49-18.76l80.7,46.59v-3.46
		l-2.95-1.7l-5.26-3.04V575.37l8.22,4.74v-3.46l-77.7-44.86l27.23-15.72l5.26-3.04l45.21,26.1v-3.46l-42.21-24.37l32.49-18.76
		l9.72,5.61v-3.46l-6.72-3.88l6.72-3.88v-3.46l-79.2,45.73v-37.52l79.2-45.73v-3.46l-79.2,45.73v-37.52l79.2-45.73v-3.46
		l-79.2,45.73V409.7l34.73-20.05c0,0,0,0,0,0l35.49-20.49c0,0,0,0,0,0l8.98-5.18v-3.46l-9.72,5.61l-103.48-59.74l32.49-18.76
		l80.7,46.59v-3.46l-2.95-1.7l-5.26-3.04V206.52l8.22,4.74v-3.46l-77.7-44.86l27.23-15.72l5.26-3.04l45.21,26.1v-3.46l-42.21-24.37
		l32.49-18.76l9.72,5.61v-3.46l-6.72-3.88l6.72-3.88v-3.46l-79.2,45.73v-37.52L1122,77.1v-3.46l-79.2,45.73V81.84l79.2-45.73v-3.46
		l-79.2,45.73V40.86l34.73-20.05c0,0,0,0,0,0l35.49-20.49c0,0,0,0,0,0l0.54-0.31h-6l-30.77,17.77L1046.02,0h-6l33.77,19.5
		l-32.49,18.76L975.04,0h-6.22v119.36l-32.49-18.76V0h-3v18.63L829.85,78.37V40.86l34.73-20.05c0,0,0,0,0,0l35.49-20.49l0,0
		L900.61,0h-6l-30.77,17.77L833.07,0h-6l33.77,19.5l-32.49,18.76L762.08,0h-6.22v119.36l-32.49-18.76V0h-3v18.63L616.89,78.37V40.86
		l34.73-20.05c0,0,0,0,0,0l35.49-20.49c0,0,0,0,0,0L687.66,0h-6l-30.77,17.77L620.11,0h-6l33.77,19.5l-32.49,18.76L549.13,0h-6.22
		v119.36l-32.49-18.76V0h-3v18.63L403.94,78.37V40.86l34.73-20.05c0,0,0,0,0,0l35.49-20.49c0,0,0,0,0,0L474.7,0h-6l-30.77,17.77
		L407.16,0h-6l33.77,19.5l-32.49,18.76L336.17,0h-6.22v119.36l-32.49-18.76V0h-3v18.63L190.98,78.37V40.86z M119.24,942.92
		C119.24,942.92,119.24,942.92,119.24,942.92l35.49-20.49c0,0,0,0,0,0l33.25-19.2v37.52l-103.48,59.74v-37.52L119.24,942.92z
		 M49.01,694.85V575.37l32.49,18.76v119.49l-26.83-15.49L49.01,694.85z M119.24,574.07C119.24,574.07,119.24,574.07,119.24,574.07
		l35.49-20.49c0,0,0,0,0,0l33.25-19.2v37.52L84.51,631.65v-37.52L119.24,574.07z M49.01,326V206.52l32.49,18.76v119.49l-26.83-15.49
		L49.01,326z M119.24,205.23C119.24,205.23,119.24,205.23,119.24,205.23l35.49-20.49c0,0,0,0,0,0l33.25-19.2v37.52L84.51,262.8
		v-37.52L119.24,205.23z M367.69,184.73l33.25-19.2v37.52L297.46,262.8v-37.52l34.73-20.05c0,0,0,0,0,0L367.69,184.73
		C367.68,184.74,367.68,184.74,367.69,184.73z M580.64,184.73l33.25-19.2v37.52L510.42,262.8v-37.52l34.73-20.05c0,0,0,0,0,0
		L580.64,184.73C580.64,184.74,580.64,184.74,580.64,184.73z M793.59,184.73l33.25-19.2v37.52L723.37,262.8v-37.52l34.73-20.05
		c0,0,0,0,0,0L793.59,184.73C793.59,184.74,793.59,184.74,793.59,184.73z M1006.55,184.73l33.25-19.2v37.52L936.32,262.8v-37.52
		l34.73-20.05c0,0,0,0,0,0L1006.55,184.73C1006.55,184.74,1006.55,184.74,1006.55,184.73z M1039.8,1022.72l-103.48,59.74v-37.52
		l103.48-59.74V1022.72z M219.31,147.45l5.67-3.27l103.48,59.74l-32.49,18.76l-103.48-59.74L219.31,147.45z M432.26,147.45
		l5.67-3.27l103.48,59.74l-32.49,18.76l-103.48-59.74L432.26,147.45z M644.81,147.69l6.07-3.51l103.48,59.74l-32.49,18.76
		l-103.48-59.74L644.81,147.69z M858.57,147.22l5.26-3.04l103.48,59.74l-32.49,18.76l-103.48-59.74L858.57,147.22z M1039.8,244.04
		l-103.48,59.74v-37.52l103.48-59.74V244.04z M970.32,571.04l-103.48-59.74l32.49-18.76l103.48,59.74L970.32,571.04z M1039.8,612.89
		l-103.48,59.74v-37.52l103.48-59.74V612.89z M1005.81,919.39l-103.48-59.74l32.49-18.76l103.48,59.74L1005.81,919.39z
		 M970.32,939.88l-103.48-59.74l32.49-18.76l103.48,59.74L970.32,939.88z M1039.8,981.73l-103.48,59.74v-37.52l103.48-59.74V981.73z
		 M934.82,960.38l-103.48-59.74l32.49-18.76l103.48,59.74L934.82,960.38z M618.39,900.63l32.49-18.76l103.48,59.74l-32.49,18.76
		L618.39,900.63z M405.44,900.63l32.49-18.76l103.48,59.74l-32.49,18.76L405.44,900.63z M192.48,900.63l32.49-18.76l103.48,59.74
		l-32.49,18.76L192.48,900.63z M187.98,778.55v119.48l-32.49-18.76V759.79L187.98,778.55z M792.85,919.39l-103.48-59.74l32.49-18.76
		l103.48,59.74L792.85,919.39z M757.36,939.88l-103.48-59.74l32.49-18.76l103.48,59.74L757.36,939.88z M579.9,919.39l-103.48-59.74
		l32.49-18.76l103.48,59.74L579.9,919.39z M544.41,939.88l-103.48-59.74l32.49-18.76l103.48,59.74L544.41,939.88z M366.95,919.39
		l-103.48-59.74l32.49-18.76l103.48,59.74L366.95,919.39z M331.45,939.88l-103.48-59.74l32.49-18.76l103.48,59.74L331.45,939.88z
		 M260.47,734.97l-103.48-59.74l32.49-18.76l103.48,59.74L260.47,734.97z M190.98,450.69l103.48-59.74v37.52L190.98,488.2V450.69z
		 M260.47,366.12l-103.48-59.74l32.49-18.76l103.48,59.74L260.47,366.12z M863.84,386.61l-103.48-59.74l32.49-18.76l103.48,59.74
		L863.84,386.61z M933.32,428.46L829.85,488.2v-37.52l103.48-59.74V428.46z M863.84,755.46l-103.48-59.74l32.49-18.76l103.48,59.74
		L863.84,755.46z M933.32,797.31l-103.48,59.74v-37.52l103.48-59.74V797.31z M261.97,694.85V575.37l32.49,18.76v119.49l-26.83-15.49
		L261.97,694.85z M826.85,778.55v119.48l-32.49-18.76V759.79L826.85,778.55z M791.35,877.54l-32.49-18.76V739.3l32.49,18.76V877.54z
		 M755.86,857.05l-32.49-18.76V718.81l32.49,18.76V857.05z M720.37,838.29l-103.48,59.74v-37.52l103.48-59.74V838.29z
		 M507.42,838.29l-103.48,59.74v-37.52l103.48-59.74V838.29z M366.95,550.54L263.47,490.8l32.49-18.76l76.65,44.25l26.83,15.49
		L366.95,550.54z M365.45,389.21V508.7l-32.49-18.76V370.45L365.45,389.21z M437.93,386.61l-103.48-59.74l32.49-18.76l103.48,59.74
		L437.93,386.61z M438.67,389.65C438.67,389.65,438.67,389.65,438.67,389.65l35.49-20.49c0,0,0,0,0,0l33.25-19.2v37.52
		l-103.48,59.74V409.7L438.67,389.65z M650.88,386.61l-103.48-59.74l32.49-18.76l103.48,59.74L650.88,386.61z M651.62,389.65
		C651.62,389.65,651.62,389.65,651.62,389.65l35.49-20.49c0,0,0,0,0,0l33.25-19.2v37.52l-103.48,59.74V409.7L651.62,389.65z
		 M825.35,531.79l-32.49,18.76L689.38,490.8l32.49-18.76l76.25,44.02L825.35,531.79z M757.36,571.04l-103.48-59.74l32.49-18.76
		l103.48,59.74L757.36,571.04z M826.85,612.89l-103.48,59.74v-37.52l103.48-59.74V612.89z M511.92,716.21l32.49-18.76l103.48,59.74
		l-32.49,18.76L511.92,716.21z M403.94,819.53l103.48-59.74v37.52l-103.48,59.74V819.53z M507.42,756.33l-103.48,59.74v-37.52
		l34.73-20.05c0,0,0,0,0,0l35.49-20.49c0,0,0,0,0,0l33.25-19.2V756.33z M686.38,734.97L582.9,675.23l32.49-18.76l103.48,59.74
		L686.38,734.97z M650.88,755.46l-103.48-59.74l32.49-18.76l103.48,59.74L650.88,755.46z M473.42,734.97l-103.48-59.74l32.49-18.76
		l103.48,59.74L473.42,734.97z M403.94,491.67l103.48-59.74v37.52l-103.48,59.74V491.67z M580.64,553.58l33.25-19.2v37.52
		l-103.48,59.74v-37.52l34.73-20.05c0,0,0,0,0,0L580.64,553.58C580.64,553.58,580.64,553.58,580.64,553.58z M474.92,694.85V575.37
		l32.49,18.76v119.49l-26.83-15.49L474.92,694.85z M613.89,612.89l-103.48,59.74v-37.52l103.48-59.74V612.89z M510.42,676.09
		l103.48-59.74v37.52l-103.48,59.74V676.09z M544.41,571.04l-103.48-59.74l32.49-18.76l103.48,59.74L544.41,571.04z M432.26,516.3
		l5.67-3.27l103.48,59.74l-32.49,18.76l-103.48-59.74L432.26,516.3z M471.92,573.63v119.48l-32.49-18.76V554.88L471.92,573.63z
		 M720.37,713.61l-26.42-15.25l-6.07-3.51V575.37l32.49,18.76V713.61z M684.88,693.12l-32.49-18.76V554.88l32.49,18.76V693.12z
		 M649.38,672.63l-32.49-18.76V534.38l32.49,18.76V672.63z M720.37,469.44l-103.48,59.74v-37.52l103.48-59.74V469.44z
		 M720.37,428.46L616.89,488.2v-37.52l103.48-59.74V428.46z M612.39,531.79l-32.49,18.76L476.42,490.8l32.49-18.76l76.25,44.02
		L612.39,531.79z M507.42,428.46L403.94,488.2v-37.52l103.48-59.74V428.46z M436.43,553.14v119.48l-32.49-18.76V534.38
		L436.43,553.14z M366.95,676.96l103.48,59.74l-32.49,18.76l-103.48-59.74L366.95,676.96z M616.89,819.53l103.48-59.74v37.52
		l-103.48,59.74V819.53z M720.37,756.33l-103.48,59.74v-37.52l34.73-20.05c0,0,0,0,0,0l35.49-20.49c0,0,0,0,0,0l33.25-19.2V756.33z
		 M721.87,591.53l-103.48-59.74l26.42-15.25l6.07-3.51l103.48,59.74L721.87,591.53z M613.89,529.19l-27.23-15.72l-5.26-3.04V390.94
		l32.49,18.76V529.19z M578.4,508.7l-32.49-18.76V370.45l32.49,18.76V508.7z M542.91,488.2l-32.49-18.76V349.96l32.49,18.76V488.2z
		 M400.94,529.19l-26.83-15.49l-5.67-3.27V390.94l32.49,18.76V529.19z M400.94,612.89l-103.48,59.74v-37.52l103.48-59.74V612.89z
		 M297.46,676.09l103.48-59.74v37.52l-103.48,59.74V676.09z M331.45,697.45l103.48,59.74l-32.49,18.76l-103.48-59.74L331.45,697.45z
		 M365.45,758.06v119.48l-32.49-18.76V739.3L365.45,758.06z M368.45,759.79l32.49,18.76v119.48l-32.49-18.76V759.79z M510.42,718.81
		l32.49,18.76v119.48l-32.49-18.76V718.81z M545.91,739.3l32.49,18.76v119.48l-32.49-18.76V739.3z M581.4,759.79l32.49,18.76v119.48
		l-32.49-18.76V759.79z M826.85,653.87l-103.48,59.74v-37.52l103.48-59.74V653.87z M826.85,571.9l-103.48,59.74v-37.52l34.73-20.05
		c0,0,0,0,0,0l35.49-20.49c0,0,0,0,0,0l33.25-19.2V571.9z M826.85,529.19l-27.23-15.72l-5.26-3.04V390.94l32.49,18.76V529.19z
		 M791.35,508.7l-32.49-18.76V370.45l32.49,18.76V508.7z M755.86,488.2l-32.49-18.76V349.96l32.49,18.76V488.2z M686.38,366.12
		L582.9,306.38l32.49-18.76l103.48,59.74L686.38,366.12z M544.41,328.6l103.48,59.74l-32.49,18.76l-103.48-59.74L544.41,328.6z
		 M473.42,366.12l-103.48-59.74l32.49-18.76l103.48,59.74L473.42,366.12z M331.45,328.6l103.48,59.74l-32.49,18.76l-103.48-59.74
		L331.45,328.6z M297.46,349.96l32.49,18.76V488.2l-32.49-18.76V349.96z M260.47,492.53l103.48,59.74l-32.49,18.76l-103.48-59.74
		L260.47,492.53z M332.19,574.07C332.19,574.07,332.19,574.07,332.19,574.07l35.49-20.49c0,0,0,0,0,0l33.25-19.2v37.52
		l-103.48,59.74v-37.52L332.19,574.07z M329.95,737.57v119.48l-32.49-18.76V718.81L329.95,737.57z M828.35,775.95l-103.48-59.74
		l32.49-18.76l103.48,59.74L828.35,775.95z M828.35,407.1l-103.48-59.74l32.49-18.76l103.48,59.74L828.35,407.1z M219.31,516.3
		l5.67-3.27l103.48,59.74l-32.49,18.76l-103.48-59.74L219.31,516.3z M258.97,573.63v119.49l-32.49-18.76V554.88L258.97,573.63z
		 M294.46,797.31l-103.48,59.74v-37.52l103.48-59.74V797.31z M190.98,860.52l103.48-59.74v37.52l-103.48,59.74V860.52z
		 M829.85,898.03v-37.52l103.48-59.74v37.52L829.85,898.03z M933.32,756.33l-103.48,59.74v-37.52l34.73-20.05c0,0,0,0,0,0
		l35.49-20.49c0,0,0,0,0,0l33.25-19.2V756.33z M899.33,734.97l-103.48-59.74l32.49-18.76l103.48,59.74L899.33,734.97z
		 M865.34,674.36V554.88l32.49,18.76v119.49L865.34,674.36z M862.34,672.63l-32.49-18.76V534.38l32.49,18.76V672.63z M829.85,529.19
		v-37.52l103.48-59.74v37.52L829.85,529.19z M933.32,387.48l-103.48,59.74V409.7l34.73-20.05c0,0,0,0,0,0l35.49-20.49c0,0,0,0,0,0
		l33.25-19.2V387.48z M899.33,366.12l-103.48-59.74l32.49-18.76l103.48,59.74L899.33,366.12z M865.34,305.51V186.03l32.49,18.76
		v119.48L865.34,305.51z M862.34,303.78l-32.49-18.76V165.54l32.49,18.76V303.78z M826.85,285.02l-103.48,59.74v-37.52l103.48-59.74
		V285.02z M720.37,344.76l-26.42-15.25l-6.07-3.51V206.52l32.49,18.76V344.76z M684.88,324.27l-32.49-18.76V186.03l32.49,18.76
		V324.27z M649.38,303.78l-32.49-18.76V165.54l32.49,18.76V303.78z M613.89,285.02l-103.48,59.74v-37.52l103.48-59.74V285.02z
		 M507.42,344.76l-26.83-15.49l-5.67-3.27V206.52l32.49,18.76V344.76z M471.92,324.27l-32.49-18.76V186.03l32.49,18.76V324.27z
		 M436.43,303.78l-32.49-18.76V165.54l32.49,18.76V303.78z M400.94,285.02l-103.48,59.74v-37.52l103.48-59.74V285.02z
		 M294.46,344.76l-26.83-15.49l-5.67-3.27V206.52l32.49,18.76V344.76z M258.97,324.27l-32.49-18.76V186.03l32.49,18.76V324.27z
		 M223.48,303.78l-32.49-18.76V165.54l32.49,18.76V303.78z M153.99,308.11l103.48,59.74l-32.49,18.76L121.5,326.87L153.99,308.11z
		 M225.71,389.65C225.71,389.65,225.72,389.65,225.71,389.65l35.49-20.49c0,0,0,0,0,0l33.25-19.2v37.52l-103.48,59.74V409.7
		L225.71,389.65z M190.98,491.67l103.48-59.74v37.52l-103.48,59.74V491.67z M223.48,553.14v119.48l-32.49-18.76V534.38
		L223.48,553.14z M153.99,676.96l103.48,59.74l-32.49,18.76L121.5,695.72L153.99,676.96z M225.71,758.5
		C225.71,758.5,225.72,758.5,225.71,758.5l35.49-20.49c0,0,0,0,0,0l33.25-19.2v37.52l-103.48,59.74v-37.52L225.71,758.5z
		 M190.98,903.23l32.49,18.76v119.48l-32.49-18.76V903.23z M297.46,962.97l34.73-20.05c0,0,0,0,0,0l35.49-20.49c0,0,0,0,0,0
		l33.25-19.2v37.52l-103.48,59.74V962.97z M297.46,1003.96l103.48-59.74v37.52l-103.48,59.74V1003.96z M403.94,903.23l32.49,18.76
		v119.48l-32.49-18.76V903.23z M510.42,962.97l34.73-20.05c0,0,0,0,0,0l35.49-20.49c0,0,0,0,0,0l33.25-19.2v37.52l-103.48,59.74
		V962.97z M510.42,1003.96l103.48-59.74v37.52l-103.48,59.74V1003.96z M616.89,903.23l32.49,18.76v119.48l-32.49-18.76V903.23z
		 M723.37,962.97l34.73-20.05c0,0,0,0,0,0l35.49-20.49c0,0,0,0,0,0l33.25-19.2v37.52l-103.48,59.74V962.97z M723.37,1003.96
		l103.48-59.74v37.52l-103.48,59.74V1003.96z M829.85,903.23l32.49,18.76v119.48l-32.49-18.76V903.23z M900.83,694.85V575.37
		l32.49,18.76v119.49l-27.23-15.72L900.83,694.85z M934.82,591.53l-103.48-59.74l27.23-15.72l5.26-3.04l103.48,59.74L934.82,591.53z
		 M900.83,326V206.52l32.49,18.76v119.49l-27.23-15.72L900.83,326z M826.85,244.04l-103.48,59.74v-37.52l103.48-59.74V244.04z
		 M613.89,244.04l-103.48,59.74v-37.52l103.48-59.74V244.04z M400.94,244.04l-103.48,59.74v-37.52l103.48-59.74V244.04z
		 M187.98,244.04L84.51,303.78v-37.52l103.48-59.74V244.04z M84.51,307.25l103.48-59.74v37.52L84.51,344.76V307.25z M118.5,328.6
		l103.48,59.74l-32.49,18.76L86.01,347.36L118.5,328.6z M152.49,389.21V508.7L120,489.94V370.45L152.49,389.21z M155.49,510.43
		V390.94l32.49,18.76v119.48l-27.23-15.72L155.49,510.43z M187.98,612.89L84.51,672.63v-37.52l103.48-59.74V612.89z M84.51,676.09
		l103.48-59.74v37.52L84.51,713.61V676.09z M118.5,697.45l103.48,59.74l-32.49,18.76L86.01,716.21L118.5,697.45z M152.49,758.06
		v119.48L120,858.78V739.3L152.49,758.06z M187.98,981.73l-103.48,59.74v-37.52l103.48-59.74V981.73z M84.51,1044.94l103.48-59.74
		v37.52l-103.48,59.74V1044.94z M226.48,1043.21V923.72l32.49,18.76v119.48L226.48,1043.21z M261.97,944.21l32.49,18.76v119.48
		l-32.49-18.76V944.21z M297.46,1044.94l103.48-59.74v37.52l-103.48,59.74V1044.94z M439.43,1043.21V923.72l32.49,18.76v119.48
		L439.43,1043.21z M474.92,944.21l32.49,18.76v119.48l-32.49-18.76V944.21z M510.42,1044.94l103.48-59.74v37.52l-103.48,59.74
		V1044.94z M652.38,1043.21V923.72l32.49,18.76v119.48L652.38,1043.21z M687.88,944.21l32.49,18.76v119.48l-32.49-18.76V944.21z
		 M723.37,1044.94l103.48-59.74v37.52l-103.48,59.74V1044.94z M865.34,1043.21V923.72l32.49,18.76v119.48L865.34,1043.21z
		 M900.83,944.21l32.49,18.76v119.48l-32.49-18.76V944.21z M1039.8,940.75l-103.48,59.74v-37.52l34.73-20.05c0,0,0,0,0,0
		l35.49-20.49c0,0,0,0,0,0l33.25-19.2V940.75z M971.82,858.78V739.3l32.49,18.76v119.48L971.82,858.78z M968.82,857.05l-32.49-18.76
		V718.81l32.49,18.76V857.05z M936.32,676.09l103.48-59.74v37.52l-103.48,59.74V676.09z M1039.8,571.9l-103.48,59.74v-37.52
		l34.73-20.05c0,0,0,0,0,0l35.49-20.49c0,0,0,0,0,0l33.25-19.2V571.9z M1038.3,531.79l-32.49,18.76L902.33,490.8l32.49-18.76
		l77.06,44.49L1038.3,531.79z M971.82,489.94V370.45l32.49,18.76V508.7L971.82,489.94z M968.82,488.2l-32.49-18.76V349.96
		l32.49,18.76V488.2z M936.32,307.25l103.48-59.74v37.52l-103.48,59.74V307.25z M970.32,202.19l-103.48-59.74l32.49-18.76
		l103.48,59.74L970.32,202.19z M757.36,202.19l-103.48-59.74l32.49-18.76l103.48,59.74L757.36,202.19z M544.41,202.19l-103.48-59.74
		l32.49-18.76l103.48,59.74L544.41,202.19z M331.45,202.19l-103.48-59.74l32.49-18.76l103.48,59.74L331.45,202.19z M187.98,160.34
		l-27.23-15.72l-5.26-3.04V22.1l32.49,18.76V160.34z M83.01,103.2l76.25,44.02l27.23,15.72l-32.49,18.76L50.51,121.96L83.01,103.2z
		 M84.51,349.96L117,368.72V488.2l-32.49-18.76V349.96z M83.01,472.04l76.25,44.02l27.23,15.72l-32.49,18.76L50.51,490.8
		L83.01,472.04z M117,737.57v119.48l-32.49-18.76V718.81L117,737.57z M83.01,840.89l103.48,59.74l-32.49,18.76L50.51,859.65
		L83.01,840.89z M49.01,1063.7V944.21l32.49,18.76v119.48L49.01,1063.7z M1039.8,898.03l-32.49-18.76V759.79l32.49,18.76V898.03z
		 M1041.3,775.95l-103.48-59.74l32.49-18.76l103.48,59.74L1041.3,775.95z M1042.8,653.87V534.38l32.49,18.76v119.48L1042.8,653.87z
		 M1039.8,529.19l-26.42-15.25l-6.07-3.51V390.94l32.49,18.76V529.19z M1041.3,407.1l-103.48-59.74l32.49-18.76l103.48,59.74
		L1041.3,407.1z M1042.8,285.02V165.54l32.49,18.76v119.48L1042.8,285.02z M1039.8,160.34l-26.42-15.25l-6.07-3.51V22.1l32.49,18.76
		V160.34z M1038.3,162.94l-32.49,18.76l-103.48-59.74l32.49-18.76l77.06,44.49L1038.3,162.94z M933.32,100.6l-103.48,59.74v-37.52
		l103.48-59.74V100.6z M826.85,160.34l-27.23-15.72l-5.26-3.04V22.1l32.49,18.76V160.34z M825.35,162.94l-32.49,18.76l-103.48-59.74
		l32.49-18.76l76.25,44.02L825.35,162.94z M720.37,100.6l-103.48,59.74v-37.52l103.48-59.74V100.6z M613.89,160.34l-27.23-15.72
		l-5.26-3.04V22.1l32.49,18.76V160.34z M612.39,162.94L579.9,181.7l-103.48-59.74l32.49-18.76l76.25,44.02L612.39,162.94z
		 M507.42,100.6l-103.48,59.74v-37.52l103.48-59.74V100.6z M400.94,160.34l-26.83-15.49l-5.67-3.27V22.1l32.49,18.76V160.34z
		 M399.44,162.94l-32.49,18.76l-103.48-59.74l32.49-18.76l76.65,44.25L399.44,162.94z M294.46,100.6l-103.48,59.74v-37.52
		l103.48-59.74V100.6z M120,1.6l32.49,18.76v119.48L120,121.09V1.6z M15.02,142.45l32.49-18.76l103.48,59.74l-32.49,18.76
		L15.02,142.45z M13.52,186.03l32.49,18.76v119.48l-32.49-18.76V186.03z M15.02,511.29l32.49-18.76l103.48,59.74l-32.49,18.76
		L15.02,511.29z M13.52,554.88l32.49,18.76v119.48l-32.49-18.76V554.88z M15.02,880.14l32.49-18.76l103.48,59.74l-32.49,18.76
		L15.02,880.14z M13.52,923.72l32.49,18.76v119.48l-32.49-18.76V923.72z M260.47,1103.82l-103.48-59.74l32.49-18.76l103.48,59.74
		L260.47,1103.82z M473.42,1103.82l-103.48-59.74l32.49-18.76l103.48,59.74L473.42,1103.82z M686.38,1103.82l-103.48-59.74
		l32.49-18.76l103.48,59.74L686.38,1103.82z M899.33,1103.82l-103.48-59.74l32.49-18.76l103.48,59.74L899.33,1103.82z
		 M1110.78,1061.97l-32.49-18.76V923.72l32.49,18.76V1061.97z M1075.29,921.99v119.48l-32.49-18.76V903.23L1075.29,921.99z
		 M1109.28,736.7l-32.49,18.76l-103.48-59.74l32.49-18.76L1109.28,736.7z M1110.78,693.12l-32.49-18.76V554.88l32.49,18.76V693.12z
		 M1109.28,367.85l-32.49,18.76l-103.48-59.74l32.49-18.76L1109.28,367.85z M1110.78,324.27l-32.49-18.76V186.03l32.49,18.76V324.27
		z M971.82,1.6l32.49,18.76v119.48l-32.49-18.76V1.6z M933.32,22.1v37.52l-103.48,59.74V81.84L933.32,22.1z M758.86,1.6l32.49,18.76
		v119.48l-32.49-18.76V1.6z M720.37,22.1v37.52l-103.48,59.74V81.84L720.37,22.1z M545.91,1.6l32.49,18.76v119.48l-32.49-18.76V1.6z
		 M507.42,22.1v37.52l-103.48,59.74V81.84L507.42,22.1z M332.95,1.6l32.49,18.76v119.48l-32.49-18.76V1.6z M294.46,22.1v37.52
		l-103.48,59.74V81.84L294.46,22.1z"/>
</g>
<polygon class="st2" points="-1408.49,1360.6 -1406.46,1361.77 -1400.47,1361.77 -1408.49,1357.14 "/>
</svg>
